<?xml version="1.0" standalone="no"?>
<!DOCTYPE svg PUBLIC "-//W3C//DTD SVG 20010904//EN"
 "http://www.w3.org/TR/2001/REC-SVG-20010904/DTD/svg10.dtd">
<svg version="1.0" xmlns="http://www.w3.org/2000/svg"
 width="736.000000pt" height="552.000000pt" viewBox="0 0 736.000000 552.000000"
 preserveAspectRatio="xMidYMid meet">

<g transform="translate(0.000000,552.000000) scale(0.100000,-0.100000)"
fill="#000000" stroke="none">
<path d="M5335 4244 c-80 -13 -254 -12 -275 1 -3 2 -35 -5 -71 -16 -89 -29
-149 -37 -339 -48 -197 -12 -288 -28 -400 -72 -253 -97 -450 -285 -645 -614
-82 -138 -287 -599 -345 -775 -10 -30 -35 -95 -55 -145 -20 -49 -48 -119 -62
-154 -13 -36 -30 -76 -38 -90 -17 -30 -105 -221 -105 -227 0 -2 -34 -55 -76
-119 -92 -139 -171 -215 -274 -264 -69 -32 -82 -35 -170 -36 -105 0 -176 23
-222 72 l-23 25 25 -7 c83 -26 164 -33 175 -14 4 5 1 18 -7 27 -74 90 -76 309
-3 452 29 57 139 178 200 220 72 49 198 113 270 136 38 12 87 29 107 38 21 9
59 21 85 26 27 6 54 14 61 18 7 5 28 46 48 93 45 105 56 141 46 150 -10 9
-202 -7 -313 -26 -123 -21 -335 -92 -435 -145 -169 -90 -339 -236 -432 -372
-21 -29 -40 -55 -43 -58 -20 -17 -104 -227 -120 -304 -75 -340 48 -617 326
-740 116 -52 400 -60 531 -16 33 11 66 20 75 20 9 0 50 15 90 34 174 79 305
200 431 396 104 162 169 317 333 807 l88 262 66 10 c78 13 310 41 320 39 8 -2
98 9 221 27 52 8 158 21 235 30 77 9 147 17 155 18 8 1 16 14 18 29 2 20 -2
28 -20 34 -30 9 -476 9 -725 -1 l-193 -8 16 47 c28 81 153 317 230 434 121
182 240 302 349 353 50 23 162 26 191 4 30 -23 42 -18 54 23 6 20 16 45 24 54
11 15 13 6 12 -60 -2 -147 64 -239 213 -296 67 -27 193 -51 215 -43 35 14 30
38 -18 85 -73 71 -99 122 -94 183 8 77 61 119 187 149 68 16 74 9 67 -88 -4
-44 -2 -71 3 -67 18 10 51 116 51 160 0 35 4 45 20 50 28 9 88 83 101 124 19
65 28 165 17 178 -12 15 -34 15 -153 -3z m-185 -112 c0 -5 -11 -19 -24 -31
-32 -30 -106 -40 -125 -17 -21 25 -1 39 62 47 80 10 87 10 87 1z m-487 -99
c-7 -2 -19 -2 -25 0 -7 3 -2 5 12 5 14 0 19 -2 13 -5z m-363 -67 c0 -3 -4 -8
-10 -11 -5 -3 -10 -1 -10 4 0 6 5 11 10 11 6 0 10 -2 10 -4z m-650 -1106 c0
-5 -4 -10 -10 -10 -5 0 -10 5 -10 10 0 6 5 10 10 10 6 0 10 -4 10 -10z m-240
-50 c0 -5 -4 -10 -10 -10 -5 0 -10 5 -10 10 0 6 5 10 10 10 6 0 10 -4 10 -10z
m-593 -46 c-3 -3 -12 -4 -19 -1 -8 3 -5 6 6 6 11 1 17 -2 13 -5z m608 -56 c4
0 12 6 16 14 6 9 9 7 9 -9 0 -24 -9 -27 -48 -17 -18 5 -20 9 -11 21 9 10 14
11 19 3 4 -7 11 -12 15 -12z m-585 -42 c0 -3 -4 -8 -10 -11 -5 -3 -10 -1 -10
4 0 6 5 11 10 11 6 0 10 -2 10 -4z m-176 -21 c3 3 2 0 -3 -6 -10 -12 -31 -4
-31 13 0 7 4 7 13 -1 8 -6 17 -9 21 -6z m756 -75 c0 -5 -4 -10 -10 -10 -5 0
-10 5 -10 10 0 6 5 10 10 10 6 0 10 -4 10 -10z m-50 -340 c0 -5 -7 -10 -15
-10 -8 0 -15 5 -15 10 0 6 7 10 15 10 8 0 15 -4 15 -10z m-80 -116 c0 -8 -5
-12 -10 -9 -6 4 -8 11 -5 16 9 14 15 11 15 -7z"/>
<path d="M5110 3740 c0 -54 65 -120 183 -184 71 -40 88 -34 35 13 l-31 28 51
6 c57 7 116 33 107 47 -4 7 -13 6 -25 0 -57 -30 -203 5 -270 66 -39 36 -50 41
-50 24z"/>
</g>
</svg>
